<svg xmlns="http://www.w3.org/2000/svg" xmlns:xlink="http://www.w3.org/1999/xlink" width="600" zoomAndPan="magnify" viewBox="0 0 450 299.999988" height="400" preserveAspectRatio="xMidYMid meet" version="1.0"><defs><g/></defs><g fill="#020301" fill-opacity="1"><g transform="translate(46.964487, 183.975133)"><g><path d="M 18.0625 11.609375 L -38.09375 -51.484375 C -39.5625 -53.140625 -40.59375 -54.414062 -41.1875 -55.3125 C -41.789062 -56.207031 -42.285156 -57.382812 -42.671875 -58.84375 C -43.398438 -61.675781 -41.851562 -64.789062 -38.03125 -68.1875 C -34.207031 -71.582031 -31.195312 -73.390625 -29 -73.609375 C -26.8125 -73.828125 -24.773438 -73.09375 -22.890625 -71.40625 C -23.484375 -77.582031 -20.84375 -83.285156 -14.96875 -88.515625 C -9.101562 -93.742188 -1.078125 -95.925781 9.109375 -95.0625 C 19.304688 -94.195312 27.675781 -90.085938 34.21875 -82.734375 C 40.757812 -75.390625 43.882812 -66.617188 43.59375 -56.421875 C 43.3125 -46.234375 40.21875 -38.507812 34.3125 -33.25 C 28.40625 -27.988281 22.644531 -25.828125 17.03125 -26.765625 L 36.453125 -4.9375 C 37.921875 -3.28125 38.953125 -2.007812 39.546875 -1.125 C 40.148438 -0.238281 40.648438 0.960938 41.046875 2.484375 C 41.441406 4.015625 41.175781 5.570312 40.25 7.15625 C 39.332031 8.75 37.757812 10.539062 35.53125 12.53125 C 33.300781 14.519531 31.328125 15.890625 29.609375 16.640625 C 27.898438 17.390625 26.320312 17.5 24.875 16.96875 C 23.4375 16.4375 22.3125 15.820312 21.5 15.125 C 20.6875 14.4375 19.539062 13.265625 18.0625 11.609375 Z M -5.8125 -58.3125 C -5.738281 -54.894531 -4.675781 -52.035156 -2.625 -49.734375 C -0.582031 -47.429688 2.128906 -46.078125 5.515625 -45.671875 C 8.910156 -45.265625 11.921875 -46.234375 14.546875 -48.578125 C 17.179688 -50.921875 18.582031 -53.84375 18.75 -57.34375 C 18.914062 -60.851562 17.941406 -63.796875 15.828125 -66.171875 C 13.710938 -68.554688 10.941406 -69.929688 7.515625 -70.296875 C 4.085938 -70.671875 0.988281 -69.625 -1.78125 -67.15625 C -4.550781 -64.6875 -5.894531 -61.738281 -5.8125 -58.3125 Z M -5.8125 -58.3125 "/></g></g></g><g fill="#020301" fill-opacity="1"><g transform="translate(96.125104, 136.469727)"><g><path d="M 24.5 -84.21875 C 22.945312 -89.414062 25.410156 -93.378906 31.890625 -96.109375 C 35.367188 -97.566406 38.0625 -98.382812 39.96875 -98.5625 C 41.875 -98.738281 43.441406 -98.300781 44.671875 -97.25 C 45.898438 -96.207031 46.796875 -95.203125 47.359375 -94.234375 C 47.921875 -93.265625 48.632812 -91.757812 49.5 -89.71875 L 69.125 -43.046875 C 69.988281 -41.003906 70.566406 -39.441406 70.859375 -38.359375 C 71.160156 -37.285156 71.28125 -35.953125 71.21875 -34.359375 C 70.945312 -31.535156 68.390625 -29.101562 63.546875 -27.0625 C 58.703125 -25.03125 55.203125 -24.265625 53.046875 -24.765625 C 50.898438 -25.265625 49.210938 -26.613281 47.984375 -28.8125 C 46.671875 -22.726562 42.171875 -18.066406 34.484375 -14.828125 C 26.796875 -11.597656 18.1875 -12.109375 8.65625 -16.359375 C -0.875 -20.609375 -7.59375 -27.378906 -11.5 -36.671875 C -15.414062 -45.960938 -15.523438 -55.488281 -11.828125 -65.25 C -8.140625 -75.007812 -2.34375 -81.550781 5.5625 -84.875 C 8.582031 -86.144531 11.5625 -86.769531 14.5 -86.75 C 17.4375 -86.726562 19.585938 -86.457031 20.953125 -85.9375 C 22.316406 -85.414062 23.5 -84.84375 24.5 -84.21875 Z M 11.890625 -46.28125 C 13.128906 -43.34375 15.398438 -41.179688 18.703125 -39.796875 C 22.015625 -38.421875 25.316406 -38.421875 28.609375 -39.796875 C 31.898438 -41.179688 34.125 -43.53125 35.28125 -46.84375 C 36.445312 -50.164062 36.421875 -53.269531 35.203125 -56.15625 C 33.984375 -59.050781 31.804688 -61.300781 28.671875 -62.90625 C 25.535156 -64.507812 22.210938 -64.570312 18.703125 -63.09375 C 15.203125 -61.625 12.882812 -59.1875 11.75 -55.78125 C 10.613281 -52.382812 10.660156 -49.21875 11.890625 -46.28125 Z M 11.890625 -46.28125 "/></g></g></g><g fill="#020301" fill-opacity="1"><g transform="translate(156.792166, 104.122806)"><g><path d="M 102.484375 -76.71875 C 108.679688 -74.082031 111.800781 -70.789062 111.84375 -66.84375 C 111.863281 -65.195312 111.117188 -62.554688 109.609375 -58.921875 C 108.109375 -55.296875 106.84375 -52.128906 105.8125 -49.421875 L 90.3125 -10.484375 C 88.90625 -6.234375 86.523438 -3.222656 83.171875 -1.453125 C 81.722656 -0.753906 79.890625 -0.394531 77.671875 -0.375 C 75.453125 -0.351562 73.296875 -1.175781 71.203125 -2.84375 C 69.117188 -4.507812 67.726562 -6.207031 67.03125 -7.9375 L 65.859375 -10.375 C 65.066406 -12.289062 62.140625 -19.78125 57.078125 -32.84375 C 56.140625 -30.519531 54.753906 -26.722656 52.921875 -21.453125 C 51.097656 -16.179688 49.929688 -12.890625 49.421875 -11.578125 C 48.910156 -10.273438 48.582031 -9.40625 48.4375 -8.96875 C 48.300781 -8.53125 47.898438 -7.726562 47.234375 -6.5625 C 46.566406 -5.40625 45.804688 -4.382812 44.953125 -3.5 C 42.660156 -1.164062 40.019531 0.015625 37.03125 0.046875 C 34.039062 0.078125 31.523438 -0.738281 29.484375 -2.40625 C 27.441406 -4.070312 26.070312 -5.769531 25.375 -7.5 L 2.984375 -60.484375 C 1.992188 -63.367188 1.492188 -65.242188 1.484375 -66.109375 C 1.441406 -69.972656 4.160156 -73.046875 9.640625 -75.328125 C 12.710938 -76.609375 15.210938 -77.257812 17.140625 -77.28125 C 19.066406 -77.300781 20.632812 -76.90625 21.84375 -76.09375 C 23.050781 -75.289062 23.898438 -74.476562 24.390625 -73.65625 C 24.890625 -72.84375 25.289062 -72.007812 25.59375 -71.15625 C 27.269531 -67.3125 30.785156 -58.28125 36.140625 -44.0625 L 44.421875 -67.578125 C 44.984375 -69.515625 46.03125 -71.210938 47.5625 -72.671875 C 50.320312 -75.503906 53.148438 -76.9375 56.046875 -76.96875 C 58.941406 -77 61.429688 -76.25 63.515625 -74.71875 C 65.609375 -73.195312 67.050781 -71.671875 67.84375 -70.140625 L 69.015625 -67.703125 C 73.984375 -54.242188 76.910156 -46.554688 77.796875 -44.640625 L 86.375 -68.75 C 88.625 -74.9375 92.0625 -78.054688 96.6875 -78.109375 C 98.519531 -78.128906 100.453125 -77.664062 102.484375 -76.71875 Z M 102.484375 -76.71875 "/></g></g></g><g fill="#020301" fill-opacity="1"><g transform="translate(155.585709, 236.336257)"><g><path d="M 4.625 20.96875 L 9.265625 -63.375 C 9.390625 -65.59375 9.550781 -67.222656 9.75 -68.265625 C 9.957031 -69.316406 10.4375 -70.503906 11.1875 -71.828125 C 12.675781 -74.347656 15.972656 -75.46875 21.078125 -75.1875 C 26.191406 -74.90625 29.597656 -74.066406 31.296875 -72.671875 C 33.003906 -71.273438 33.9375 -69.3125 34.09375 -66.78125 C 38.03125 -71.59375 43.921875 -73.78125 51.765625 -73.34375 C 59.609375 -72.914062 66.835938 -68.800781 73.453125 -61 C 80.078125 -53.207031 83.117188 -44.398438 82.578125 -34.578125 C 82.035156 -24.753906 78.070312 -16.328125 70.6875 -9.296875 C 63.300781 -2.273438 55.660156 1.015625 47.765625 0.578125 C 39.878906 0.148438 34.269531 -2.367188 30.9375 -6.984375 L 29.34375 22.171875 C 29.21875 24.390625 29.050781 26.023438 28.84375 27.078125 C 28.644531 28.128906 28.144531 29.332031 27.34375 30.6875 C 26.550781 32.050781 25.269531 32.972656 23.5 33.453125 C 21.738281 33.941406 19.363281 34.101562 16.375 33.9375 C 13.394531 33.769531 11.03125 33.347656 9.28125 32.671875 C 7.53125 31.992188 6.332031 30.957031 5.6875 29.5625 C 5.039062 28.175781 4.671875 26.953125 4.578125 25.890625 C 4.492188 24.828125 4.507812 23.1875 4.625 20.96875 Z M 36.96875 -45.46875 C 34.613281 -43 33.347656 -40.222656 33.171875 -37.140625 C 33.003906 -34.066406 33.976562 -31.1875 36.09375 -28.5 C 38.21875 -25.820312 41.035156 -24.382812 44.546875 -24.1875 C 48.066406 -24 51.125 -25.09375 53.71875 -27.46875 C 56.320312 -29.84375 57.707031 -32.617188 57.875 -35.796875 C 58.050781 -38.972656 57.050781 -41.894531 54.875 -44.5625 C 52.707031 -47.238281 49.769531 -48.675781 46.0625 -48.875 C 42.351562 -49.082031 39.320312 -47.945312 36.96875 -45.46875 Z M 36.96875 -45.46875 "/></g></g></g><g fill="#020301" fill-opacity="1"><g transform="translate(257.1922, 239.193263)"><g><path d="M 34.75 -80.53125 C 33.851562 -85.882812 36.789062 -89.515625 43.5625 -91.421875 C 47.1875 -92.441406 49.957031 -92.921875 51.875 -92.859375 C 53.789062 -92.796875 55.289062 -92.164062 56.375 -90.96875 C 57.46875 -89.769531 58.234375 -88.65625 58.671875 -87.625 C 59.117188 -86.601562 59.640625 -85.023438 60.234375 -82.890625 L 73.9375 -34.15625 C 74.539062 -32.019531 74.921875 -30.394531 75.078125 -29.28125 C 75.234375 -28.175781 75.179688 -26.835938 74.921875 -25.265625 C 74.304688 -22.492188 71.46875 -20.394531 66.40625 -18.96875 C 61.351562 -17.550781 57.789062 -17.222656 55.71875 -17.984375 C 53.644531 -18.753906 52.128906 -20.304688 51.171875 -22.640625 C 49.117188 -16.765625 44.078125 -12.695312 36.046875 -10.4375 C 28.015625 -8.175781 19.53125 -9.75 10.59375 -15.15625 C 1.664062 -20.5625 -4.15625 -28.113281 -6.875 -37.8125 C -9.601562 -47.519531 -8.53125 -56.984375 -3.65625 -66.203125 C 1.207031 -75.429688 7.769531 -81.207031 16.03125 -83.53125 C 19.175781 -84.414062 22.207031 -84.664062 25.125 -84.28125 C 28.039062 -83.90625 30.144531 -83.375 31.4375 -82.6875 C 32.726562 -82 33.832031 -81.28125 34.75 -80.53125 Z M 17.546875 -44.453125 C 18.410156 -41.390625 20.394531 -38.960938 23.5 -37.171875 C 26.613281 -35.390625 29.882812 -34.984375 33.3125 -35.953125 C 36.75 -36.921875 39.25 -38.972656 40.8125 -42.109375 C 42.375 -45.253906 42.734375 -48.335938 41.890625 -51.359375 C 41.046875 -54.378906 39.164062 -56.878906 36.25 -58.859375 C 33.34375 -60.847656 30.054688 -61.328125 26.390625 -60.296875 C 22.722656 -59.265625 20.117188 -57.128906 18.578125 -53.890625 C 17.035156 -50.660156 16.691406 -47.515625 17.546875 -44.453125 Z M 17.546875 -44.453125 "/></g></g></g><g fill="#020301" fill-opacity="1"><g transform="translate(351.724433, 208.231366)"><g><path d="M -45.40625 -88.59375 C -46.519531 -90.488281 -47.296875 -91.953125 -47.734375 -92.984375 C -48.171875 -94.015625 -48.46875 -95.328125 -48.625 -96.921875 C -48.789062 -99.835938 -46.210938 -102.863281 -40.890625 -106 C -35.816406 -108.976562 -32 -109.710938 -29.4375 -108.203125 C -28.03125 -107.347656 -26.972656 -106.457031 -26.265625 -105.53125 C -25.554688 -104.613281 -24.640625 -103.195312 -23.515625 -101.28125 L 10.4375 -43.5625 C 12.195312 -40.570312 13.5625 -38.828125 14.53125 -38.328125 C 15.5 -37.828125 16.832031 -38.078125 18.53125 -39.078125 C 20.238281 -40.085938 21.421875 -40.695312 22.078125 -40.90625 C 22.734375 -41.125 23.644531 -41.195312 24.8125 -41.125 C 27.113281 -41.007812 29.679688 -38.539062 32.515625 -33.71875 C 35.585938 -28.476562 36.640625 -24.796875 35.671875 -22.671875 C 34.390625 -19.890625 29.378906 -16.601562 20.640625 -12.8125 C 13.753906 -9.882812 8.351562 -9.5625 4.4375 -11.84375 C -0.28125 -14.550781 -5.253906 -20.347656 -10.484375 -29.234375 Z M -45.40625 -88.59375 "/></g></g></g><g fill="#020301" fill-opacity="1"><g transform="translate(402.852158, 178.105152)"><g><path d="M -0.078125 -9.296875 C -2.203125 -8.878906 -4.128906 -9.578125 -5.859375 -11.390625 C -7.585938 -13.210938 -8.875 -17.238281 -9.71875 -23.46875 C -10.082031 -25.394531 -9.40625 -27.171875 -7.6875 -28.796875 C -5.976562 -30.421875 -2.847656 -31.769531 1.703125 -32.84375 C 6.265625 -33.914062 9.738281 -35.582031 12.125 -37.84375 C 16.382812 -41.894531 17.722656 -44.757812 16.140625 -46.4375 C 14.867188 -47.769531 11.59375 -46.523438 6.3125 -42.703125 C 1.300781 -39.148438 -4.625 -36.640625 -11.46875 -35.171875 C -14.6875 -34.503906 -18.238281 -34.882812 -22.125 -36.3125 C -26.007812 -37.75 -29.710938 -40.320312 -33.234375 -44.03125 C -43.722656 -55.070312 -41.382812 -67.800781 -26.21875 -82.21875 C -21.25 -86.925781 -15.015625 -90.582031 -7.515625 -93.1875 C -4.003906 -94.394531 -1.457031 -94.160156 0.125 -92.484375 C 1.71875 -90.804688 2.910156 -88.015625 3.703125 -84.109375 C 4.492188 -80.203125 4.082031 -77.484375 2.46875 -75.953125 C 1.632812 -75.160156 -0.414062 -74.207031 -3.6875 -73.09375 C -6.96875 -71.988281 -9.929688 -70.175781 -12.578125 -67.65625 C -16.710938 -63.738281 -18.046875 -61.007812 -16.578125 -59.46875 C -14.585938 -57.363281 -10.914062 -58.253906 -5.5625 -62.140625 C -0.476562 -66.035156 5.257812 -68.960938 11.65625 -70.921875 C 14.613281 -71.859375 17.914062 -71.769531 21.5625 -70.65625 C 25.21875 -69.539062 28.769531 -67.160156 32.21875 -63.515625 C 35.675781 -59.878906 37.9375 -56.132812 39 -52.28125 C 40.0625 -48.4375 39.96875 -44.726562 38.71875 -41.15625 C 36.289062 -34.738281 31.703125 -28.328125 24.953125 -21.921875 C 18.210938 -15.515625 9.867188 -11.304688 -0.078125 -9.296875 Z M -0.078125 -9.296875 "/></g></g></g></svg>